<svg version="1.1"
     id="logo-svg"
     xmlns="http://www.w3.org/2000/svg"
     xmlns:xlink="http://www.w3.org/1999/xlink"
     x="0px" y="0px"
     viewBox="0 8.5 275 108.5"
     width='200'
     preserveAspectRatio="xMinYMin meet"
     xml:space="preserve">

  <style type="text/css">
   .logo_letters{fill:#282;}
   .trapezoid {fill:#bfb;}
  </style>

  <g id="Trapezoid">
    <polygon class="trapezoid" points="247,108.5 24,108.5 0,0 275,0"/>
  </g>

  <g id="The">
    <g>
      <g>
        <path class="logo_letters" d="M61.3,26.4l-0.8,0.3c-0.9-1.8-2.6-3.1-4.6-3.1c-0.8,0-0.8,0.4-0.8,0.9V34c0,0.5,0,1.2,0.2,1.6
                                      c0.3,0.7,1,0.7,1.6,0.7h0.4V37h-6.5v-0.6l0.4,0c0.6,0,1.3-0.1,1.6-0.7c0.2-0.4,0.2-1.2,0.2-1.7v-9.4c0-0.7,0-1.1-0.9-1.1
                                      c-2.1,0-3.7,1.3-4.7,3.1l-0.7-0.3l1.2-3.7h12.2L61.3,26.4z"/>
        <path class="logo_letters" d="M72.3,34.3c0,1.2,0.2,1.9,1.5,2H74V37h-5.6v-0.6h0.3c1.4-0.1,1.6-0.7,1.6-2v-4.5
                                      c0-0.5,0-1.1-0.3-1.5c-0.3-0.4-0.9-0.6-1.4-0.6c-1.2,0-2.9,0.8-3.7,1.7v5c0,1.2,0.1,2,1.4,2h0.3V37h-5.6v-0.6h0.2
                                      c1.4-0.1,1.7-0.7,1.7-2v-9c0-1.1-0.1-1.9-1.6-2l-0.3,0v-0.6c1-0.1,2.1-0.3,3-0.7h0.8v6.4c1.2-1,2.6-1.8,4.3-1.8
                                      c0.8,0,1.7,0.2,2.4,0.7c0.8,0.6,0.8,1.5,0.8,2.4v0.1V34.3z"/>
        <path class="logo_letters" d="M77.4,30.9l0,1.1c0,1,0.4,2.1,0.9,2.9c0.6,0.9,1.6,1.3,2.7,1.3c1.4,0,2.4-0.7,3.1-1.9l0.7,0.4
                                      c-0.8,1.7-2.5,2.5-4.3,2.5c-1.4,0-2.6-0.4-3.7-1.4c-1-1-1.6-2.5-1.6-3.9c0-3,1.9-5.2,5-5.2h0c2.5,0,4.5,1.7,4.5,4.2v0.1H77.4z
                                      M82.5,30.1c0-1.6-1-2.6-2.4-2.6c-1.5,0-2.5,1.2-2.6,2.6H82.5z"/>
      </g>
    </g>
  </g>
  <g id="Pragmatic">
    <g>
      <g>
        <path class="logo_letters" d="M29.9,53.7c0,0.8,0,1.8,0.3,2.4c0.5,1.1,1.7,1.2,2.7,1.3l0.7,0v1.1H23.1v-1.1l0.3,0
                                      c1-0.1,2-0.2,2.4-1.2c0.4-0.8,0.4-2,0.4-3V38.6c0-1.9-0.2-3.3-2.7-3.5l-0.5,0V34h11.8c2.1,0,4.2,0.2,6,1.3c2,1.2,3.1,3.2,3.1,5.5
                                      c0,2.1-0.9,4.1-2.6,5.4c-1.8,1.4-4.4,1.6-6.6,1.6h-5V53.7z M34.3,46.4c1.8,0,3.4-0.1,4.7-1.5c1.1-1.2,1.4-2.5,1.4-4.1
                                      c0-1.5-0.5-3.1-1.7-4.1c-1.2-1-2.8-1.3-4.3-1.3c-0.9,0-3.3,0.1-4,0.7c-0.5,0.3-0.5,1.1-0.5,1.7v8.6H34.3z"/>
        <path class="logo_letters" d="M51.7,53.9c0.1,2.1,0.4,3.3,2.7,3.5l0.6,0v1.1h-9.9v-1.1h0.4c2.4-0.1,2.8-1.3,2.8-3.5v-7.5
                                      c0-2-0.4-3.3-2.6-3.5H45v-1.1l5.5-0.8h1.2v2.7c1.6-1.6,3.6-3.1,6-3.1c1.2,0,2.7,0.5,2.7,1.9c0,1.2-0.9,1.9-2,1.9
                                      c-1.7,0-2.1-1.2-3.2-1.2c-1.2,0-2.7,1.1-3.5,2V53.9z"/>
        <path class="logo_letters" d="M81.3,57.6c-0.9,0.8-2.3,1.2-3.5,1.2h-0.1c-1.8,0-3.4-0.8-3.9-2.6c-2.1,1.7-4.1,2.6-6.8,2.6
                                      c-2.5,0-5.5-1.4-5.5-4.2c0-2.4,1.5-3.6,3.6-4.5c1.9-0.9,4-1.3,6-1.5l2.7-0.3v-2.6c-0.1-1.1-0.3-2.1-1.3-2.7
                                      c-0.9-0.6-2.2-0.8-3.2-0.8c-1.1,0-3.5,0.5-3.5,1.9v0.5c0,1.2-0.5,2.2-1.8,2.2c-0.9,0-1.7-0.7-1.7-1.6c0-1.5,1.7-2.8,2.9-3.4
                                      c1.5-0.6,3.5-1,5.1-1h0.1c1.5,0,3.4,0.5,4.7,1.2c1.9,1,2.1,2.4,2.1,4.4v7.1c0,1.5,0.2,3.8,2,3.8c0.5,0,1-0.3,1.5-0.5L81.3,57.6z
                                      M73.7,49.5c-2.7,0.3-8.6,1-8.6,4.6c0,1.8,1.5,2.9,3.3,2.9c1.9,0,3.9-1.2,5.4-2.4V49.5z"/>
        <path class="logo_letters" d="M94.6,56.8c2.7,0.4,5.8,0.9,5.8,4.4c0,4.9-5.8,6-9.7,6c-2.9,0-9.1-0.7-9.1-4.6
                                      c0-2.1,2.1-3.2,3.7-3.8v-0.1c-1.4-0.4-2.6-1.3-2.6-2.9c0-2,1.7-3.3,3.5-3.7c-1.8-1-2.8-2.9-2.8-4.9v-0.2c0.1-4,3.5-6.3,7.2-6.3
                                      c1.1,0,2.2,0.2,3.3,0.6c0.9-1.7,2.5-3.2,4.5-3.2c1,0,2.1,0.4,2.1,1.5c0,0.7-0.5,1.4-1.3,1.4c-0.8,0-1.5-0.6-2.3-0.6
                                      s-1.4,0.8-1.9,1.4c1.8,1.3,3,3.1,3,5.4c0,1.7-0.9,3.5-2.2,4.5c-1.4,1.2-3.4,1.5-5.3,1.5c-1.2,0-2.2-0.2-3.2-0.6
                                      c-0.7,0.3-1.7,1.1-1.7,1.9c0,1.3,2,1.4,2.8,1.5L94.6,56.8z M86.7,59.2c-1.4,0.4-2.9,1.7-2.9,3.2c0,3.2,4.8,3.7,7.1,3.7
                                      c2.3,0,6.9-0.5,6.9-3.6c0-2-2.6-2.2-4.1-2.4L86.7,59.2z M86.9,47c0,2.7,0.7,5,3.9,5c1.2,0,2.6-0.6,3.1-1.7
                                      c0.5-0.9,0.6-2.4,0.6-3.4c0-2.6-0.6-4.9-3.7-4.9C87.8,42,86.9,44.5,86.9,47z"/>
        <path class="logo_letters" d="M107.7,53.9c0,2,0.3,3.3,2.6,3.5h0.4v1.1h-9.2v-1.1c2.4-0.2,2.8-1.4,2.8-3.5v-7.5
                                      c0-2-0.4-3.3-2.6-3.5h-0.6v-1.1l5.5-0.8h1.2v2.5c1.6-1.7,4-2.8,6.8-2.8c2.3,0,3.9,0.6,5,2.8c1.8-1.6,4.3-2.8,6.6-2.8h0.1
                                      c1.5,0,3.1,0.5,4.1,1.8c0.8,1,0.9,2.3,0.9,3.5v7.9c0,1.9,0.3,3.3,2.7,3.5v1.1h-9.1v-1.1h0.3c2.3-0.2,2.7-1.4,2.7-3.5v-7.1
                                      c0-0.8,0-1.7-0.3-2.4c-0.4-1.1-1.4-1.8-2.6-1.8c-1.9,0-3.8,1.2-5.4,2.4v9c0,2.1,0.4,3.3,2.7,3.5h0.3v1.1H113v-1.1h0.3
                                      c2.3-0.2,2.7-1.4,2.7-3.5v-7.2c0-2-0.1-4.1-2.7-4.1c-2.1,0-4.1,1.2-5.5,2.4V53.9z"/>
        <path class="logo_letters" d="M155.4,57.6c-0.9,0.8-2.3,1.2-3.5,1.2h-0.1c-1.8,0-3.4-0.8-3.9-2.6c-2.1,1.7-4.1,2.6-6.8,2.6
                                      c-2.5,0-5.5-1.4-5.5-4.2c0-2.4,1.5-3.6,3.6-4.5c1.9-0.9,4-1.3,6-1.5l2.7-0.3v-2.6c-0.1-1.1-0.3-2.1-1.3-2.7
                                      c-0.9-0.6-2.2-0.8-3.2-0.8c-1.1,0-3.5,0.5-3.5,1.9v0.5c0,1.2-0.5,2.2-1.8,2.2c-0.9,0-1.7-0.7-1.7-1.6c0-1.5,1.7-2.8,2.9-3.4
                                      c1.5-0.6,3.5-1,5.1-1h0.1c1.5,0,3.4,0.5,4.7,1.2c1.9,1,2.1,2.4,2.1,4.4v7.1c0,1.5,0.2,3.8,2,3.8c0.5,0,1-0.3,1.5-0.5L155.4,57.6z
                                      M147.9,49.5c-2.7,0.3-8.6,1-8.6,4.6c0,1.8,1.5,2.9,3.3,2.9c1.9,0,3.9-1.2,5.4-2.4V49.5z"/>
        <path class="logo_letters" d="M167.5,42.2h-5.1v10.1c0,2,0,4.9,2.7,4.9c1.3,0,2.3-0.7,3.1-1.6l0.9,0.8c-1.2,1.6-3.1,2.3-5.1,2.3
                                      c-1.2,0-2.6-0.3-3.6-0.9c-1.4-0.9-1.6-2.3-1.6-3.9V42.2h-3v-1.2c4.1-0.1,4.9-3.1,4.9-6.6h1.5v6.6h5.1V42.2z"/>
        <path class="logo_letters" d="M176.3,53.9c0,2,0.3,3.3,2.6,3.5h0.4v1.1h-9.5v-1.1h0.3c2.4-0.1,2.7-1.3,2.7-3.5v-7.5
                                      c0-2-0.4-3.3-2.6-3.5h-0.6v-1.1l5.5-0.8h1.2V53.9z M174.5,39.3c-1.3,0-2.1-1-2.1-2.2c0-1.1,1-2.1,2.2-2.1c1.3,0,2.2,1,2.2,2.2
                                      C176.7,38.4,175.7,39.3,174.5,39.3z"/>
        <path class="logo_letters" d="M197.6,54.8c-1.8,2.8-4.4,4-7.7,4c-5.4,0-8.9-3.5-8.9-8.9c0-5.4,3.3-9.2,8.9-9.2
                                      c1.7,0,3.3,0.3,4.8,1.3c1.2,0.8,2.4,2,2.4,3.5c0,1.1-0.7,2-1.8,2c-1,0-1.8-0.7-1.8-1.7c0-0.5,0.1-0.9,0.1-1.4
                                      c0-1.6-2.3-2.3-3.6-2.3c-4.1,0-4.9,4.5-4.9,7.7v0.1c0,3.6,1.6,7.5,5.8,7.5c2.5,0,4.1-1.4,5.6-3.3L197.6,54.8z"/>
      </g>
    </g>
  </g>
  <g id="Bookshelf">
    <g>
      <g>
        <path class="logo_letters" d="M68.6,86v-1.1l0.4,0c1-0.1,2.1-0.2,2.6-1.2c0.3-0.6,0.4-1.7,0.4-2.6V66.1c0-1.9-0.2-3.3-2.7-3.5
                                      l-0.6-0.1v-1.1H81c1.9,0,4.7,0.1,6.5,0.7c2.3,0.8,4,2.6,4,5.1c0,3.1-2.4,4.6-5.2,5.1v0.1c3.3,0.5,6.5,2.5,6.5,6.2
                                      c0,2.7-1.4,4.9-3.8,6.1c-2.2,1.1-5.2,1.2-7.6,1.2H68.6z M79.5,72c3.3,0,8.3,0,8.3-4.6c0-4.1-4.2-4.6-7.4-4.6c-1,0-3.3,0-4.2,0.8
                                      c-0.6,0.6-0.7,1.7-0.7,2.6V72H79.5z M75.5,80.3c0,1,0,2.6,0.6,3.3c0.8,0.8,3.1,0.9,4.2,0.9c1.8,0,4.2-0.2,5.8-1.1
                                      c1.7-1,2.6-2.8,2.6-4.8c0-2.2-1-4.2-3.3-4.8c-1.5-0.4-3.6-0.4-5.3-0.4h-4.6V80.3z"/>
        <path class="logo_letters" d="M110.4,70.5c1.8,1.7,2.6,4.4,2.6,6.8c0,5.4-3.4,9-8.8,9c-5.3,0-8.8-3.5-8.8-8.8
                                      c0-5.4,3.1-9.3,8.7-9.3C106.4,68.2,108.8,68.9,110.4,70.5z M104.3,69.7c-4.1,0-5.1,4.4-5.1,7.7c0,3.5,1,7.5,5.3,7.5
                                      c3.9,0,4.8-4.1,4.8-7.2c0-1.7-0.1-3.7-0.9-5.3c-0.8-1.5-2.3-2.7-4-2.7H104.3z"/>
        <path class="logo_letters" d="M130.6,70.5c1.8,1.7,2.6,4.4,2.6,6.8c0,5.4-3.4,9-8.8,9c-5.3,0-8.8-3.5-8.8-8.8
                                      c0-5.4,3.1-9.3,8.7-9.3C126.5,68.2,129,68.9,130.6,70.5z M124.5,69.7c-4.1,0-5.1,4.4-5.1,7.7c0,3.5,1,7.5,5.3,7.5
                                      c3.9,0,4.8-4.1,4.8-7.2c0-1.7-0.1-3.7-0.9-5.3c-0.8-1.5-2.3-2.7-4-2.7H124.5z"/>
        <path class="logo_letters" d="M141.8,77l5.1-4.5c0.4-0.4,1.3-1,1.3-1.7c0-1-1.2-1.1-2-1.2v-1.1h9.6v1.1c-3.2,0.3-5.4,1.7-7.7,3.8
                                      l-0.9,0.8l5,7.3c1.2,1.7,2.6,3.1,4.8,3.4V86h-9.8v-1.1h0.4c0.7,0,1.6,0,1.6-1c0-0.8-0.8-1.8-1.2-2.4l-3.4-4.9l-2.9,2.6v2.3
                                      c0,2.1,0.2,3.4,2.5,3.5h0.6V86h-9.8v-1.1h0.4c2.4-0.1,2.8-1.2,2.8-3.5V66c0-1.9-0.2-3.3-2.7-3.5l-0.5,0v-1.1
                                      c1.8-0.2,3.5-0.5,5.2-1.2h1.4V77z"/>
        <path class="logo_letters" d="M173,74.1h-1.2c-0.9-2.4-3.7-4.4-6.3-4.4c-1.6,0-3.7,0.7-3.7,2.6c0,1.8,2.1,2.1,3.4,2.4l4.1,1
                                      c2.7,0.6,5,1.6,5,4.8c0,4-4,5.8-7.5,5.8c-2.1,0-4.1-0.5-5.8-1.8l-0.4,1.5h-1.2l-1.3-6.4h1.3c1,3.2,4,5.2,7.3,5.2
                                      c1.8,0,4.5-0.9,4.5-3.2c0-1.8-1.6-2.2-3-2.5l-3.7-1c-2.7-0.7-5.8-1.4-5.8-4.8c0-3.3,3.7-5.1,6.6-5.1c1.8,0,3.7,0.5,5.1,1.6
                                      l0.4-1.3h1L173,74.1z"/>
        <path class="logo_letters" d="M195.7,81.4c0,2,0.3,3.3,2.5,3.5h0.4V86H189v-1.1h0.4c2.4-0.1,2.8-1.2,2.8-3.5v-7.7
                                      c0-0.9,0-1.8-0.6-2.6c-0.6-0.7-1.5-1-2.4-1c-2.1,0-4.9,1.4-6.3,2.8v8.5c0,2,0.3,3.3,2.4,3.5h0.5V86h-9.6v-1.1h0.4
                                      c2.4-0.1,2.8-1.2,2.8-3.5V66c0-1.9-0.2-3.3-2.7-3.5l-0.5,0v-1.1c1.8-0.2,3.5-0.5,5.2-1.2h1.4v11.1c2.1-1.8,4.5-3,7.3-3
                                      c1.3,0,3,0.4,4,1.2c1.4,1.1,1.4,2.6,1.4,4.1v0.3V81.4z"/>
        <path class="logo_letters" d="M204.4,75.6l-0.1,1.8c0,1.7,0.6,3.6,1.5,5c1,1.5,2.8,2.2,4.6,2.2c2.4,0,4.1-1.2,5.3-3.3l1.2,0.6
                                      c-1.3,2.8-4.3,4.3-7.3,4.3c-2.4,0-4.5-0.6-6.3-2.3c-1.8-1.8-2.7-4.3-2.7-6.7c0-5.2,3.3-9,8.6-9h0.1c4.2,0,7.7,2.8,7.7,7.2v0.1
                                      H204.4z M213.1,74.1c0-2.7-1.7-4.4-4.1-4.4c-2.6,0-4.2,2.1-4.5,4.4H213.1z"/>
        <path class="logo_letters" d="M225.4,81.4c0,1.9,0.3,3.3,2.5,3.5l0.4,0V86h-9.4v-1.1h0.3c2.3-0.2,2.7-1.3,2.7-3.5V66
                                      c0-1.9-0.2-3.3-2.7-3.5l-0.5,0v-1.1c1.8-0.2,3.5-0.5,5.2-1.2h1.4V81.4z"/>
        <path class="logo_letters" d="M239.6,69.7H236v11.7c0,2,0.3,3.3,2.5,3.5l0.5,0V86h-9.5v-1.1h0.3c2.3-0.1,2.7-1.3,2.7-3.5V69.7
                                      h-3.1v-1.2h3.1v-1.5c0-1.9,0.1-3.6,1.5-5.1c1.6-1.6,4.3-2.4,6.5-2.4c1.2,0,3.1,0.6,3.1,2.1c0,0.9-0.8,1.6-1.7,1.6
                                      c-1.7,0-1.7-2.1-3.4-2.1c-0.6,0-1.3,0.4-1.8,0.8c-0.8,0.8-0.8,1.7-0.8,2.8v3.9h3.6V69.7z"/>
      </g>
    </g>
  </g>
</svg>
